<?xml version="1.0" standalone="no"?>
<!DOCTYPE svg PUBLIC "-//W3C//DTD SVG 20010904//EN"
 "http://www.w3.org/TR/2001/REC-SVG-20010904/DTD/svg10.dtd">
<svg version="1.0" xmlns="http://www.w3.org/2000/svg"
 width="401.000000pt" height="401.000000pt" viewBox="0 0 401.000000 401.000000"
 preserveAspectRatio="xMidYMid meet">
<metadata>
Created by potrace 1.14, written by Peter Selinger 2001-2017
</metadata>
<g transform="translate(0.000000,401.000000) scale(0.100000,-0.100000)"
fill="#000000" stroke="none">
<path d="M1971 3677 c-19 -34 -90 -158 -158 -275 -68 -118 -125 -219 -126
-225 -1 -8 88 -12 326 -12 180 0 327 1 327 2 0 2 -42 75 -92 163 -51 88 -97
168 -103 178 -83 147 -127 222 -133 226 -4 2 -23 -23 -41 -57z"/>
<path d="M1688 3053 c4 -10 23 -45 42 -78 19 -33 42 -72 50 -86 113 -199 225
-389 230 -389 5 0 27 36 97 160 11 19 68 118 127 219 58 101 106 185 106 187
0 2 -148 4 -330 4 -310 0 -329 -1 -322 -17z"/>
<path d="M1467 2803 c-69 -120 -134 -234 -145 -253 -10 -19 -29 -51 -41 -71
l-21 -36 333 -1 334 0 -105 182 c-57 99 -115 199 -127 221 -13 22 -41 70 -63
108 l-39 67 -126 -217z"/>
<path d="M2341 2872 c-47 -81 -121 -210 -166 -288 l-82 -141 333 0 334 -1 -32
57 c-17 31 -42 73 -55 93 -13 21 -23 39 -23 41 0 4 -218 378 -222 383 -2 1
-41 -63 -87 -144z"/>
<path d="M1278 2316 c10 -17 85 -147 166 -289 82 -142 150 -257 151 -255 1 2
63 109 138 238 126 220 162 282 186 321 9 14 -22 16 -325 16 l-334 0 18 -31z"/>
<path d="M2100 2337 c0 -5 8 -21 18 -35 11 -15 33 -52 49 -82 27 -49 253 -441
258 -448 2 -2 255 433 313 539 l20 36 -329 0 c-196 0 -329 -4 -329 -10z"/>
<path d="M1134 2226 c-22 -39 -96 -167 -163 -284 -68 -117 -121 -215 -119
-218 3 -2 151 -3 330 -2 l326 3 -144 249 c-79 137 -144 251 -144 253 0 2 -10
19 -23 37 l-22 34 -41 -72z"/>
<path d="M2764 2162 c-43 -75 -82 -143 -87 -152 -4 -8 -18 -33 -32 -55 -14
-22 -31 -51 -37 -65 -7 -14 -19 -36 -29 -50 -9 -14 -28 -46 -42 -72 l-27 -48
330 0 c182 0 330 3 330 6 0 6 -15 33 -145 259 -54 94 -117 202 -140 242 l-41
72 -80 -137z"/>
<path d="M994 1365 c82 -143 157 -273 167 -288 l17 -29 96 169 c54 92 101 175
106 183 21 33 103 177 115 200 l13 25 -332 0 -332 0 150 -260z"/>
<path d="M2514 1620 c16 -33 329 -570 331 -568 3 3 123 209 172 296 13 23 53
93 89 154 35 61 64 113 64 117 0 3 -148 6 -329 6 -181 0 -328 -2 -327 -5z"/>
<path d="M650 1388 c-58 -100 -107 -187 -109 -192 -2 -5 -25 -43 -50 -85 -26
-42 -50 -84 -54 -93 -6 -17 13 -18 324 -18 l331 0 -33 58 c-17 31 -40 71 -50
87 -10 17 -26 46 -37 65 -68 121 -195 337 -205 348 -10 10 -34 -25 -117 -170z"/>
<path d="M3219 1508 c-54 -96 -79 -139 -188 -328 l-101 -175 326 -3 c180 -1
329 0 331 2 2 2 -9 26 -26 52 -16 27 -42 72 -58 100 -93 166 -239 414 -244
414 -3 0 -21 -28 -40 -62z"/>
<path d="M434 901 c-2 -2 7 -23 20 -45 13 -23 34 -59 46 -81 48 -87 243 -421
253 -433 7 -9 31 25 88 125 44 75 79 138 79 139 0 2 14 23 30 47 17 25 30 47
30 51 0 3 22 43 49 89 28 46 51 90 53 97 2 10 -61 13 -320 14 -178 1 -326 -1
-328 -3z"/>
<path d="M2109 875 c10 -16 85 -146 167 -288 167 -290 146 -272 205 -168 14
25 83 144 152 264 69 119 120 217 114 218 -7 0 -157 1 -334 2 l-322 2 18 -30z"/>
<path d="M2940 900 c-5 -3 65 -132 155 -288 117 -202 165 -278 172 -270 17 22
323 552 323 559 0 6 -641 5 -650 -1z"/>
<path d="M334 838 c-13 -19 -26 -41 -50 -85 -12 -21 -78 -136 -147 -256 -95
-163 -122 -217 -109 -218 92 -2 635 1 639 4 3 4 -277 497 -313 550 -9 15 -14
16 -20 5z"/>
<path d="M1930 718 c-41 -71 -82 -142 -90 -157 -9 -14 -42 -73 -74 -131 -33
-58 -66 -113 -74 -123 -9 -9 -13 -20 -10 -23 7 -6 648 -8 654 -2 4 5 -303 538
-320 555 -8 9 -29 -19 -86 -119z"/>
<path d="M2799 778 c-24 -40 -98 -169 -165 -286 l-122 -212 46 0 c241 -3 605
-1 609 3 4 4 -298 538 -318 560 -4 5 -26 -24 -50 -65z"/>
<path d="M3610 740 c-36 -62 -72 -124 -80 -139 -9 -14 -44 -75 -79 -136 -34
-60 -72 -125 -83 -143 -11 -18 -18 -35 -15 -38 6 -6 647 -8 651 -3 3 4 -282
499 -314 548 -15 23 -17 21 -80 -89z"/>
</g>
</svg>
